<?xml version="1.0" encoding="UTF-8"?>
<!-- Generator: Adobe Illustrator 16.0.0, SVG Export Plug-In . SVG Version: 6.00 Build 0)  -->
<!DOCTYPE svg PUBLIC "-//W3C//DTD SVG 1.1//EN" "http://www.w3.org/Graphics/SVG/1.1/DTD/svg11.dtd">
<svg version="1.1" id="Layer_1" xmlns="http://www.w3.org/2000/svg" xmlns:xlink="http://www.w3.org/1999/xlink" x="0px" y="0px" width="512px" height="512px" viewBox="0 0 512 512" enable-background="new 0 0 512 512" xml:space="preserve">
<path d="M511.5,335.5c0,35.344-28.656,64-64,64v0.5h-272c-44.188,0-80-35.813-80-80c0-38.75,27.563-71.063,64.156-78.406  c0-0.531-0.156-1.031-0.156-1.594c0-53.031,42.969-96,96-96c37.438,0,69.5,21.625,85.344,52.875  c8.375-2.938,17.25-4.875,26.656-4.875c43.844,0,79.344,35.25,79.906,79h0.094v0.5C482.844,271.5,511.5,300.156,511.5,335.5z   M129.406,217.938c7.406-42.563,36.156-77.594,74.563-94.625C190.688,116.219,175.656,112,159.5,112c-53.031,0-96,42.969-96,96  c0,0.563,0.156,1.063,0.156,1.594C27.063,216.938-0.5,249.25-0.5,288c0,42.469,33.188,76.844,74.938,79.5  C67.625,353.031,63.5,337.031,63.5,320C63.5,275.438,90.094,235.75,129.406,217.938z"/>
</svg>